HIERARCHY
ROOT Hips
{
	OFFSET 0.000000 0.000000 0.000000
	CHANNELS 6 Xposition Yposition Zposition Xrotation Yrotation Zrotation
	JOINT LeftUpLeg_virtual
	{
		OFFSET 0.000000 0.000000 0.000000
		CHANNELS 3 Xrotation Yrotation Zrotation
		JOINT LeftUpLeg
		{
			OFFSET 15.427100 -6.655098 0.678600
			CHANNELS 3 Xrotation Yrotation Zrotation
			JOINT LeftLeg
			{
				OFFSET 4.081073 -39.591068 13.024000
				CHANNELS 3 Xrotation Yrotation Zrotation
				JOINT LeftFoot
				{
					OFFSET -4.081074 -37.707932 -15.979700
					CHANNELS 3 Xrotation Yrotation Zrotation
					JOINT LeftToeBase
					{
						OFFSET 5.346399 -15.068900 20.645000
						CHANNELS 3 Xrotation Yrotation Zrotation
						JOINT LeftToe_End
						{
							OFFSET 2.754700 0.931300 11.300900
							CHANNELS 3 Xrotation Yrotation Zrotation
							End Site
							{
								OFFSET 0 0 0
							}
						}
					}
				}
			}
		}
	}
	JOINT RightUpLeg_virtual
	{
		OFFSET 0.000000 0.000000 0.000000
		CHANNELS 3 Xrotation Yrotation Zrotation
		JOINT RightUpLeg
		{
			OFFSET -15.569500 -6.655098 0.678600
			CHANNELS 3 Xrotation Yrotation Zrotation
			JOINT RightLeg
			{
				OFFSET -4.081825 -39.591045 13.023800
				CHANNELS 3 Xrotation Yrotation Zrotation
				JOINT RightFoot
				{
					OFFSET 4.081824 -37.707954 -15.979600
					CHANNELS 3 Xrotation Yrotation Zrotation
					JOINT RightToeBase
					{
						OFFSET -5.346400 -15.068900 20.645000
						CHANNELS 3 Xrotation Yrotation Zrotation
						JOINT RightToe_End
						{
							OFFSET -2.754700 0.931300 11.300900
							CHANNELS 3 Xrotation Yrotation Zrotation
							End Site
							{
								OFFSET 0 0 0
							}
						}
					}
				}
			}
		}
	}
	JOINT Spine_virtual
	{
		OFFSET 0.000000 0.000000 0.000000
		CHANNELS 3 Xrotation Yrotation Zrotation
		JOINT Spine
		{
			OFFSET -0.279200 12.230698 -2.892100
			CHANNELS 3 Xrotation Yrotation Zrotation
			JOINT Spine1
			{
				OFFSET -0.232667 10.192268 -1.242267
				CHANNELS 3 Xrotation Yrotation Zrotation
				JOINT Spine1_split
				{
					OFFSET -0.232667 10.192268 -1.242267
					CHANNELS 3 Xrotation Yrotation Zrotation
					JOINT Spine2
					{
						OFFSET -0.232667 10.192268 -1.242267
						CHANNELS 3 Xrotation Yrotation Zrotation
						JOINT Neck_virtual
						{
							OFFSET 0.000000 0.000000 0.000000
							CHANNELS 3 Xrotation Yrotation Zrotation
							JOINT Neck
							{
								OFFSET -0.418800 17.814194 8.416900
								CHANNELS 3 Xrotation Yrotation Zrotation
								JOINT Head
								{
									OFFSET 0.000000 7.031097 3.806800
									CHANNELS 3 Xrotation Yrotation Zrotation
									JOINT HeadTop_End
									{
										OFFSET 0.000000 24.646606 12.978600
										CHANNELS 3 Xrotation Yrotation Zrotation
										End Site
										{
											OFFSET 0 0 0
										}
									}
								}
							}
						}
						JOINT LeftShoulder_virtual
						{
							OFFSET 0.000000 0.000000 0.000000
							CHANNELS 3 Xrotation Yrotation Zrotation
							JOINT LeftShoulder
							{
								OFFSET 8.476499 7.247704 -3.868750
								CHANNELS 3 Xrotation Yrotation Zrotation
								JOINT LeftShoulder_split
								{
									OFFSET 8.476499 7.247704 -3.868750
									CHANNELS 3 Xrotation Yrotation Zrotation
									JOINT LeftArm
									{
										OFFSET 9.308998 -2.777710 0.208600
										CHANNELS 3 Xrotation Yrotation Zrotation
										JOINT LeftForeArm
										{
											OFFSET 29.972298 0.000000 0.000000
											CHANNELS 3 Xrotation Yrotation Zrotation
											JOINT LeftHand
											{
												OFFSET 26.026505 0.000000 0.000000
												CHANNELS 3 Xrotation Yrotation Zrotation
												End Site
												{
													OFFSET 0 0 0
												}
											}
										}
									}
								}
							}
						}
						JOINT RightShoulder_virtual
						{
							OFFSET 0.000000 0.000000 0.000000
							CHANNELS 3 Xrotation Yrotation Zrotation
							JOINT RightShoulder
							{
								OFFSET -7.570500 7.247704 -3.868750
								CHANNELS 3 Xrotation Yrotation Zrotation
								JOINT RightShoulder_split
								{
									OFFSET -7.570500 7.247704 -3.868750
									CHANNELS 3 Xrotation Yrotation Zrotation
									JOINT RightArm
									{
										OFFSET -9.308998 -2.777710 0.208500
										CHANNELS 3 Xrotation Yrotation Zrotation
										JOINT RightForeArm
										{
											OFFSET -29.972300 0.000000 0.000000
											CHANNELS 3 Xrotation Yrotation Zrotation
											JOINT RightHand
											{
												OFFSET -26.026505 0.000000 0.000000
												CHANNELS 3 Xrotation Yrotation Zrotation
												End Site
												{
													OFFSET 0 0 0
												}
											}
										}
									}
								}
							}
						}
					}
				}
			}
		}
	}
}
MOTION
Frames: 6
Frame Time: 0.03333333
8.752866 89.744148 12.019299 0.000000 0.000000 0.000000 -1.371829 8.949540 -5.477807 5.920992 11.147332 12.295754 17.283297 -4.509910 -1.901838 -23.548838 3.534151 0.807649 -2.073609 -0.781209 -0.360270 0.000000 0.000000 0.000000 -0.566770 8.308835 -5.671729 -35.614621 -6.948656 -4.190547 32.092173 0.179265 0.681521 4.684341 3.889249 6.397979 2.586862 1.184566 1.538180 0.000000 0.000000 0.000000 -0.662067 7.695693 -5.403922 11.837904 -0.834203 3.793955 0.638055 -1.718746 0.884124 0.886242 -0.978342 0.497800 0.000000 0.000000 0.000000 -3.098319 -1.400816 1.043791 -0.709674 -0.160725 5.335656 -3.787240 0.143039 -4.690821 0.000000 0.000000 0.000000 -3.301965 -1.603355 0.944548 0.859442 -1.190854 -3.572470 -1.289754 -0.218228 0.096494 -0.661879 -10.280673 -74.409727 10.508025 -13.245183 -3.299540 0.000000 0.000000 0.000000 -3.339389 -1.862689 1.012368 2.327796 -0.398540 7.990152 -2.520806 0.881470 -2.031825 1.964453 10.651800 71.402524 11.097051 19.215692 3.171523 0.000000 0.000000 0.000000 
8.925542 89.167702 14.155636 0.000000 0.000000 0.000000 -1.185401 9.680658 -5.817713 8.012624 10.947402 12.239895 16.722740 -5.156745 -1.488061 -24.882593 3.983534 0.424449 -3.111520 -0.931977 -0.327083 0.000000 0.000000 0.000000 -0.113705 8.841983 -6.087054 -36.976431 -6.606792 -3.722289 26.651062 1.565610 0.454948 6.152106 4.869887 7.593290 3.594045 0.417754 0.963513 0.000000 0.000000 0.000000 -0.366763 8.047024 -5.685528 11.878873 -1.039739 4.008918 0.419396 -1.910255 0.991948 0.817454 -1.016658 0.513481 0.000000 0.000000 0.000000 -3.210504 -1.535515 1.159445 -0.964907 -0.325410 5.158751 -4.117354 -0.003655 -5.383594 0.000000 0.000000 0.000000 -3.477525 -1.703055 0.941251 0.879515 -1.302836 -3.450415 -1.259420 0.037041 0.201797 -1.119529 -10.769824 -74.306420 10.714535 -13.899085 -3.709562 0.000000 0.000000 0.000000 -3.358562 -1.932010 1.104100 2.445879 -1.201347 7.944666 -2.539111 0.642474 -2.242825 1.905790 11.108403 71.315276 10.791901 18.697687 4.079848 0.000000 0.000000 0.000000 
9.001614 88.583122 16.325083 0.000000 0.000000 0.000000 -0.980897 10.430655 -6.070748 10.002932 10.204469 12.420357 16.125129 -5.750717 -1.008937 -25.722438 4.691779 0.023331 -3.658203 -1.084083 -0.546356 0.000000 0.000000 0.000000 0.232673 9.711817 -6.459810 -38.166824 -6.186198 -3.513450 22.073694 2.794718 0.383180 8.118674 5.730255 8.108181 3.680932 -0.360730 0.565197 0.000000 0.000000 0.000000 -0.095330 8.397807 -5.949375 12.137259 -1.413874 4.052090 0.173134 -2.189947 1.235695 0.619973 -0.904205 0.508876 0.000000 0.000000 0.000000 -3.326614 -1.778156 1.416138 -1.434448 -0.475433 4.796838 -4.554648 -0.277685 -5.989967 0.000000 0.000000 0.000000 -3.689820 -1.897071 1.089717 0.886686 -1.479709 -3.592038 -1.307951 0.398014 0.140586 -1.222325 -11.394663 -73.969221 10.840455 -14.416067 -4.159630 0.000000 0.000000 0.000000 -3.459478 -2.115568 1.317214 2.545781 -1.904002 7.682990 -2.536294 0.589330 -2.355117 2.054216 11.693693 71.514321 10.425084 18.531912 4.720652 0.000000 0.000000 0.000000 
8.979408 87.982651 18.541723 0.000000 0.000000 0.000000 -0.783369 11.144714 -6.280397 12.035318 9.131550 12.881249 15.329723 -6.172938 -0.461600 -26.445034 5.629888 -0.363048 -3.415060 -1.245667 -0.914923 0.000000 0.000000 0.000000 0.386609 10.652609 -6.770003 -39.384933 -5.831974 -3.564821 18.701830 3.527674 0.444788 10.167702 6.157115 7.588749 3.687188 -1.013485 0.423414 0.000000 0.000000 0.000000 0.128961 8.605220 -6.201191 12.551903 -1.843339 3.970913 -0.094660 -2.512279 1.542151 0.483075 -0.612168 0.469850 0.000000 0.000000 0.000000 -3.422269 -2.085035 1.730227 -2.124930 -0.627341 4.380356 -5.083683 -0.649649 -6.462150 0.000000 0.000000 0.000000 -3.909015 -2.153118 1.330396 0.880339 -1.668023 -3.927667 -1.398881 0.683133 0.051720 -1.059518 -12.165644 -73.457045 10.884642 -14.937943 -4.592260 0.000000 0.000000 0.000000 -3.602301 -2.379767 1.579287 2.603603 -2.470833 7.290266 -2.493388 0.737210 -2.309032 2.386919 12.315049 71.950319 9.998748 18.649980 5.137411 0.000000 0.000000 0.000000 
8.872887 87.304192 20.843584 0.000000 0.000000 0.000000 -0.615423 11.857722 -6.465859 14.051291 8.180495 13.647775 14.170634 -6.649459 0.031354 -27.019077 6.650340 -1.500483 -3.420182 -1.459379 -0.920928 0.000000 0.000000 0.000000 0.388378 11.476944 -6.997081 -40.641009 -5.602749 -3.853894 16.893626 3.783556 0.639696 12.227303 6.149154 6.261554 3.952217 -1.412062 0.480109 0.000000 0.000000 0.000000 0.191355 8.682741 -6.367213 13.073017 -2.211618 3.850174 -0.378628 -2.807255 1.826215 0.387066 -0.044418 0.297759 0.000000 0.000000 0.000000 -3.507260 -2.390869 2.000863 -2.969920 -0.768825 4.026189 -5.629876 -1.056944 -6.786848 0.000000 0.000000 0.000000 -4.105399 -2.404604 1.570645 0.870807 -1.788511 -4.365296 -1.521590 0.628133 -0.027881 -0.765115 -12.997365 -72.881424 10.872224 -15.588256 -4.948042 0.000000 0.000000 0.000000 -3.738421 -2.647844 1.799059 2.635606 -2.882105 6.892694 -2.383150 1.049119 -2.075966 2.740893 12.804346 72.507342 9.526074 18.908846 5.403801 0.000000 0.000000 0.000000 
8.639436 86.539299 23.207535 0.000000 0.000000 0.000000 -0.465919 12.567916 -6.605914 16.072699 7.738992 14.400639 12.752277 -6.990448 0.370903 -27.455728 7.500884 -3.084573 -4.857175 -1.830447 -0.241302 0.000000 0.000000 0.000000 0.266595 12.213043 -7.133377 -41.918483 -5.502432 -4.339992 16.642605 3.689745 0.943311 14.573040 5.890908 4.658907 4.093478 -1.506017 0.572511 0.000000 0.000000 0.000000 0.104362 8.735589 -6.416784 13.628307 -2.427154 3.747933 -0.673168 -3.028693 2.008827 0.465675 0.584678 0.160281 0.000000 0.000000 0.000000 -3.604465 -2.626913 2.147363 -3.845375 -0.907631 3.798382 -6.140120 -1.425164 -6.937939 0.000000 0.000000 0.000000 -4.283406 -2.587079 1.741014 0.864465 -1.742474 -4.790650 -1.668813 0.199897 -0.024197 -0.513425 -13.729075 -72.378094 10.850578 -16.398237 -5.182183 0.000000 0.000000 0.000000 -3.843231 -2.857910 1.896230 2.653911 -3.114285 6.573194 -2.269839 1.312713 -1.673110 2.914293 13.121935 73.073428 9.018134 19.154461 5.578276 0.000000 0.000000 0.000000 
